<svg xmlns="http://www.w3.org/2000/svg" viewBox="0 0 400 240" preserveAspectRatio="xMidYMid slice">
  <defs>
    <linearGradient id="g" x1="0" y1="0" x2="1" y2="1">
      <stop offset="0" stop-color="#67E8F9"/>
      <stop offset="1" stop-color="#0369A1"/>
    </linearGradient>
    <radialGradient id="glow" cx="0.78" cy="0.2" r="0.6">
      <stop offset="0" stop-color="#fff" stop-opacity="0.45"/>
      <stop offset="1" stop-color="#fff" stop-opacity="0"/>
    </radialGradient>
  </defs>
  <rect width="400" height="240" fill="url(#g)"/>
  <rect width="400" height="240" fill="url(#glow)"/>
  <circle cx="330" cy="200" r="90" fill="#fff" opacity="0.08"/>
  <circle cx="40" cy="30" r="60" fill="#fff" opacity="0.07"/>
  <g fill="none" stroke="#fff" stroke-width="9" stroke-linecap="round" stroke-linejoin="round" opacity="0.95">
    <circle cx="246" cy="78" r="14"/>
    <path d="M132 124l52-30 34 30-26 18"/>
    <path d="M120 162c14 0 14-10 28-10s14 10 28 10 14-10 28-10 14 10 28 10 14-10 28-10 14 10 28 10"/>
    <path d="M120 192c14 0 14-10 28-10s14 10 28 10 14-10 28-10 14 10 28 10 14-10 28-10 14 10 28 10"/>
  </g>
</svg>
